# xmcd
#
# Track frame offsets:
#	150
#	24600
#	46725
#	60000
#	73425
#	97575
#	125325
#	150525
#	180600
#	220050
#	233400
#
# Disc length: 3493 seconds
#
# Revision: 0
# Processed by: cddbd v1.4PL0 Copyright (c) Steve Scherf et al.
# Submitted via: audiograbber 1.80
#
DISCID=7f0da30b
DTITLE=Shania Twain - LIVE CD2
DYEAR=1900
DGENRE=
TTITLE0=Black eyes, blue tears
TTITLE1=God bless the child
TTITLE2=To daddy
TTITLE3=What made you say that
TTITLE4=No one needs to know
TTITLE5=Any man of mine
TTITLE6=Don't be stupid
TTITLE7=From this moment on
TTITLE8=I'm outta here!
TTITLE9=Any man of mine (reprise)
TTITLE10=Rock this country!
EXTD=
EXTT0=
EXTT1=
EXTT2=
EXTT3=
EXTT4=
EXTT5=
EXTT6=
EXTT7=
EXTT8=
EXTT9=
EXTT10=
PLAYORDER=
